<mxfile host="app.diagrams.net" modified="2023-06-09T07:04:45.469Z" agent="Mozilla/5.0 (Macintosh; Intel Mac OS X 10_15_7) AppleWebKit/537.36 (KHTML, like Gecko) Chrome/110.0.0.0 YaBrowser/23.3.3.762 Yowser/2.5 Safari/537.36" version="21.3.8" etag="OKWm7dGuQT4z--kAmiRH" type="github">
  <diagram name="Страница 1" id="BI8dlonJ9KQ3C0ewk3rY">
    <mxGraphModel>
      <root>
        <mxCell id="0" />
        <mxCell id="1" parent="0" />
      </root>
    </mxGraphModel>
  </diagram>
</mxfile>
